inDegrees=yes
name=ik_Shooting_orientations_forward
DataType=double
version=3
OpenSimVersion=4.3-2021-08-27-4bc7ad9
endheader
time	pelvis_tilt	pelvis_list	pelvis_rotation	pelvis_tx	pelvis_ty	pelvis_tz	hip_flexion_r	hip_adduction_r	hip_rotation_r	knee_angle_r	knee_angle_r_beta	ankle_angle_r	subtalar_angle_r	mtp_angle_r	hip_flexion_l	hip_adduction_l	hip_rotation_l	knee_angle_l	knee_angle_l_beta	ankle_angle_l	subtalar_angle_l	mtp_angle_l	lumbar_extension	lumbar_bending	lumbar_rotation	arm_flex_r	arm_add_r	arm_rot_r	elbow_flex_r	pro_sup_r	wrist_flex_r	wrist_dev_r	arm_flex_l	arm_add_l	arm_rot_l	elbow_flex_l	pro_sup_l	wrist_flex_l	wrist_dev_l
5	-0.1223108979905096	-0.8437642016639467	147.5600971664034	0	0.9399999999999999	0	42.10065471373677	-10.44804345775077	0	58.19687851069822	1.015727144394818	-5.09715402055216	0	0	42.10065471373677	-10.44804345775077	0	58.19687851069822	1.015727144394818	-5.09715402055216	0	0	2.182550521129767	-0.06465953844184934	-3.67202713419788	0	-9.628466500399069	0	76.29720009373956	46.00162580625871	0	0	-1.120024725222117	0.8771266752574369	-4.05350073224261	76.29720009373956	46.00162580625871	0	0
5.01	-0.1217485251597737	-0.8481376087820408	147.5628034832406	0	0.9399999999999999	0	42.10433715357909	-10.446173665313	0	58.19868513227091	1.015758675889599	-5.096633940704312	0	0	42.10433715357909	-10.446173665313	0	58.19868513227091	1.015758675889599	-5.096633940704312	0	0	2.183932551879811	-0.06408277614582575	-3.666425052842145	0	-9.632016555426613	0	76.29555448983039	45.99827061245666	0	0	-1.121277661747803	0.8707521800782413	-4.050459265954317	76.29555448983039	45.99827061245666	0	0
5.02	-0.1249158935483596	-0.8537405982972405	147.5610896169569	0	0.9399999999999999	0	42.10860243597979	-10.44464940742713	0	58.20083602221506	1.015796216000972	-5.096273030334952	0	0	42.10860243597979	-10.44464940742713	0	58.20083602221506	1.015796216000972	-5.096273030334952	0	0	2.18419320632281	-0.06780538601573449	-3.657259904334217	0	-9.636400135633602	0	76.29364748273515	45.99522831549708	0	0	-1.124594223682495	0.8718122246200346	-4.069628729994635	76.29364748273515	45.99522831549708	0	0
5.03	-0.1332069260506124	-0.8581798646339844	147.5697832251352	0	0.9399999999999999	0	42.11208712460609	-10.44355196485873	0	58.20260811925827	1.015827144929041	-5.096032524092249	0	0	42.11208712460609	-10.44355196485873	0	58.20260811925827	1.015827144929041	-5.096032524092249	0	0	2.187108332614856	-0.06888865403501605	-3.65545651349043	0	-9.640049840454745	0	76.29208925079796	45.99294081541892	0	0	-1.131983247040913	0.8780133161046293	-4.071656474948885	76.29208925079796	45.99294081541892	0	0
5.04	-0.1366286400241852	-0.8606162521540656	147.5718211934674	0	0.9399999999999999	0	42.11817026287539	-10.44052686520599	0	58.20559669441688	1.015879305405502	-5.095199125724895	0	0	42.11817026287539	-10.44052686520599	0	58.20559669441688	1.015879305405502	-5.095199125724895	0	0	2.184578159665882	-0.07149528445892439	-3.654799855704415	0	-9.645935551980477	0	76.28937079259951	45.98747773506612	0	0	-1.129124829548563	0.8669776663884348	-4.065960215673845	76.28937079259951	45.98747773506612	0	0
5.05	-0.1264799314992786	-0.8769866745195092	147.5782419567067	0	0.9399999999999999	0	42.12289683600557	-10.43932564747687	0	58.20802509580925	1.015921689005359	-5.094983735500274	0	0	42.12289683600557	-10.43932564747687	0	58.20802509580925	1.015921689005359	-5.094983735500274	0	0	2.200973380020501	-0.07622275878211801	-3.656549391970927	0	-9.650999886174391	0	76.28725689024174	45.98474656730962	0	0	-1.134394561283769	0.8812594244491638	-4.068625968724344	76.28725689024174	45.98474656730962	0	0
5.06	-0.1217457859928227	-0.8773279168756023	147.5830191259583	0	0.9399999999999999	0	42.13182720231166	-10.43509012099884	0	58.21243153272228	1.015998595837773	-5.093839192979104	0	0	42.13182720231166	-10.43509012099884	0	58.21243153272228	1.015998595837773	-5.093839192979104	0	0	2.208996474942032	-0.07611922286084845	-3.641889648481115	0	-9.659722965577496	0	76.28326579149358	45.97699304903379	0	0	-1.139115762705788	0.8610513060156819	-4.056751814549737	76.28326579149358	45.97699304903379	0	0
5.07	-0.1254336431775141	-0.8856329177583763	147.5945949430555	0	0.9399999999999999	0	42.13631678163721	-10.4333290425056	0	58.21468548426107	1.016037934713305	-5.093397534452759	0	0	42.13631678163721	-10.4333290425056	0	58.21468548426107	1.016037934713305	-5.093397534452759	0	0	2.208569939814945	-0.08128699929309859	-3.64328740223717	0	-9.664285524555574	0	76.28125873284728	45.97359272137956	0	0	-1.147832789340842	0.861965618273912	-4.047026920285773	76.28125873284728	45.97359272137956	0	0
